<svg width="154" height="36" viewBox="0 0 154 36" fill="none" xmlns="http://www.w3.org/2000/svg">
<path d="M24.8797 19.1447C24.8975 17.7648 25.264 16.4119 25.9452 15.2118C26.6263 14.0116 27.6 13.0033 28.7756 12.2805C28.0288 11.214 27.0435 10.3362 25.8982 9.71699C24.7528 9.09778 23.4788 8.75418 22.1774 8.71346C19.4013 8.42207 16.7099 10.3746 15.2953 10.3746C13.8532 10.3746 11.6752 8.74239 9.32972 8.79065C7.81262 8.83966 6.33409 9.28082 5.03818 10.0711C3.74228 10.8615 2.67319 11.974 1.93509 13.3004C-1.26219 18.836 1.1227 26.9714 4.18543 31.446C5.71778 33.6371 7.50865 36.0845 9.85198 35.9977C12.1451 35.9026 13.0015 34.5355 15.7694 34.5355C18.5117 34.5355 19.3152 35.9977 21.7061 35.9426C24.1667 35.9026 25.7169 33.7418 27.1955 31.5299C28.2965 29.9687 29.1437 28.2432 29.7058 26.4174C28.2763 25.8128 27.0563 24.8007 26.1981 23.5074C25.3399 22.2142 24.8814 20.6968 24.8797 19.1447Z" fill="black"/>
<path d="M20.3638 5.77069C21.7054 4.16013 22.3664 2.09003 22.2063 0C20.1566 0.21528 18.2633 1.1949 16.9035 2.74366C16.2387 3.50028 15.7295 4.3805 15.4051 5.33401C15.0807 6.28753 14.9474 7.29564 15.0128 8.30071C16.038 8.31126 17.0522 8.08905 17.9791 7.65081C18.906 7.21257 19.7214 6.56972 20.3638 5.77069Z" fill="black"/>
<path d="M54.7861 26.8735H47.8256L46.154 31.6963H43.2058L49.7987 13.8531H52.8618L59.4547 31.6963H56.4562L54.7861 26.8735ZM48.5465 24.648H54.0638L51.3439 16.8209H51.2678L48.5465 24.648Z" fill="black"/>
<path d="M73.6931 25.1924C73.6931 29.2351 71.4787 31.8324 68.137 31.8324C67.2905 31.8757 66.4486 31.6851 65.7078 31.2826C64.967 30.8801 64.3571 30.2818 63.9481 29.5564H63.8848V35.9999H61.152V18.6872H63.7973V20.8509H63.8475C64.2754 20.1289 64.8956 19.5338 65.642 19.1288C66.3885 18.7238 67.2334 18.5241 68.0867 18.551C71.4657 18.5511 73.6931 21.161 73.6931 25.1924ZM70.8842 25.1924C70.8842 22.5586 69.4912 20.827 67.3658 20.827C65.2778 20.827 63.8734 22.5951 63.8734 25.1924C63.8734 27.8136 65.2778 29.569 67.3658 29.569C69.4912 29.569 70.8842 27.8501 70.8842 25.1924Z" fill="black"/>
<path d="M88.3464 25.1925C88.3464 29.2351 86.1321 31.8325 82.7904 31.8325C81.9439 31.8757 81.102 31.6852 80.3612 31.2827C79.6204 30.8802 79.0105 30.2819 78.6015 29.5564H78.5382V36H75.8054V18.6872H78.4506V20.851H78.5009C78.9287 20.129 79.5489 19.5338 80.2954 19.1289C81.0418 18.7239 81.8867 18.5242 82.7401 18.5511C86.1191 18.5511 88.3464 21.1611 88.3464 25.1925ZM85.5375 25.1925C85.5375 22.5587 84.1446 20.8271 82.0192 20.8271C79.9312 20.8271 78.5268 22.5952 78.5268 25.1925C78.5268 27.8137 79.9312 29.5691 82.0192 29.5691C84.1446 29.5691 85.5376 27.8502 85.5376 25.1925H85.5375Z" fill="black"/>
<path d="M98.0312 26.7248C98.2337 28.4943 99.9928 29.6561 102.397 29.6561C104.7 29.6561 106.357 28.4942 106.357 26.8987C106.357 25.5138 105.358 24.6845 102.991 24.1162L100.625 23.5591C97.2715 22.7677 95.7148 21.2354 95.7148 18.7489C95.7148 15.6703 98.4606 13.5556 102.359 13.5556C106.218 13.5556 108.863 15.6703 108.952 18.7489H106.194C106.028 16.9682 104.522 15.8934 102.321 15.8934C100.119 15.8934 98.6127 16.9809 98.6127 18.5637C98.6127 19.8252 99.5749 20.5675 101.929 21.1357L103.94 21.6184C107.687 22.4842 109.244 23.9548 109.244 26.5647C109.244 29.903 106.522 31.9937 102.194 31.9937C98.1446 31.9937 95.4103 29.9521 95.2337 26.7247L98.0312 26.7248Z" fill="black"/>
<path d="M115.142 15.6086V18.6872H117.673V20.8019H115.142V27.9736C115.142 29.0878 115.649 29.607 116.762 29.607C117.062 29.6019 117.362 29.5812 117.66 29.5452V31.6472C117.16 31.7386 116.652 31.7799 116.143 31.7707C113.447 31.7707 112.396 30.7814 112.396 28.2584V20.8019H110.46V18.6872H112.396V15.6086H115.142Z" fill="black"/>
<path d="M119.14 25.1925C119.14 21.0993 121.607 18.5272 125.454 18.5272C129.314 18.5272 131.77 21.0993 131.77 25.1925C131.77 29.2969 129.327 31.8577 125.454 31.8577C121.582 31.8577 119.14 29.2968 119.14 25.1925ZM128.985 25.1925C128.985 22.3847 127.668 20.7275 125.454 20.7275C123.24 20.7275 121.924 22.3973 121.924 25.1925C121.924 28.0115 123.24 29.6561 125.454 29.6561C127.668 29.6561 128.985 28.0115 128.985 25.1925H128.985Z" fill="black"/>
<path d="M134.023 18.6872H136.629V20.9015H136.692C136.869 20.2099 137.283 19.5988 137.867 19.1707C138.45 18.7427 139.166 18.5239 139.895 18.5511C140.21 18.55 140.524 18.5834 140.831 18.6507V21.1484C140.434 21.0297 140.019 20.9752 139.603 20.9871C139.206 20.9713 138.81 21.0397 138.443 21.1876C138.076 21.3354 137.745 21.5592 137.475 21.8435C137.204 22.1279 137 22.4661 136.876 22.8349C136.752 23.2037 136.711 23.5944 136.756 23.9801V31.6963H134.023L134.023 18.6872Z" fill="black"/>
<path d="M153.431 27.8754C153.063 30.237 150.71 31.8577 147.698 31.8577C143.825 31.8577 141.421 29.3221 141.421 25.2542C141.421 21.1737 143.838 18.5272 147.583 18.5272C151.267 18.5272 153.583 20.9997 153.583 24.9441V25.859H144.18V26.0204C144.137 26.4991 144.198 26.9814 144.36 27.4353C144.522 27.8891 144.781 28.304 145.12 28.6526C145.458 29.0011 145.869 29.2752 146.325 29.4567C146.78 29.6381 147.27 29.7229 147.761 29.7052C148.407 29.7643 149.055 29.6182 149.609 29.2885C150.163 28.9588 150.594 28.4632 150.836 27.8754L153.431 27.8754ZM144.193 23.9927H150.849C150.873 23.5622 150.807 23.1315 150.653 22.7274C150.499 22.3233 150.261 21.9547 149.954 21.6447C149.648 21.3346 149.279 21.0899 148.871 20.9258C148.463 20.7617 148.025 20.6817 147.583 20.691C147.138 20.6884 146.697 20.7719 146.285 20.9368C145.874 21.1017 145.499 21.3446 145.184 21.6516C144.869 21.9585 144.619 22.3235 144.449 22.7253C144.279 23.1271 144.192 23.5579 144.193 23.9927V23.9927Z" fill="black"/>
<path d="M48.204 0.422464C48.7769 0.38229 49.3518 0.466865 49.8872 0.670087C50.4227 0.87331 50.9053 1.19012 51.3002 1.59765C51.6952 2.00519 51.9926 2.4933 52.1712 3.02677C52.3497 3.56024 52.4048 4.12578 52.3326 4.6826C52.3326 7.42166 50.8176 8.99612 48.204 8.99612H45.0346V0.422464H48.204ZM46.3974 7.78362H48.0517C48.4611 7.80753 48.8708 7.74194 49.251 7.59163C49.6312 7.44131 49.9723 7.21004 50.2495 6.91467C50.5267 6.61929 50.7329 6.26725 50.8533 5.88415C50.9737 5.50105 51.0051 5.09654 50.9454 4.70007C51.0008 4.30517 50.9662 3.90317 50.844 3.52287C50.7217 3.14258 50.5149 2.79341 50.2384 2.50039C49.9618 2.20737 49.6224 1.97774 49.2443 1.82797C48.8663 1.67819 48.459 1.61197 48.0517 1.63406H46.3974V7.78362Z" fill="black"/>
<path d="M53.872 5.7581C53.8304 5.3329 53.8802 4.90389 54.0182 4.49859C54.1561 4.09329 54.3793 3.72064 54.6733 3.40456C54.9673 3.08847 55.3257 2.83591 55.7255 2.66309C56.1252 2.49027 56.5576 2.40099 56.9947 2.40099C57.4318 2.40099 57.8641 2.49027 58.2639 2.66309C58.6637 2.83591 59.022 3.08847 59.3161 3.40456C59.6101 3.72064 59.8332 4.09329 59.9712 4.49859C60.1092 4.90389 60.159 5.3329 60.1174 5.7581C60.1598 6.18374 60.1106 6.61334 59.973 7.01929C59.8353 7.42525 59.6123 7.79858 59.3182 8.11529C59.0241 8.432 58.6655 8.68508 58.2653 8.85828C57.8652 9.03147 57.4324 9.12094 56.9947 9.12094C56.557 9.12094 56.1242 9.03147 55.7241 8.85828C55.3239 8.68508 54.9652 8.432 54.6712 8.11529C54.3771 7.79858 54.154 7.42525 54.0164 7.01929C53.8788 6.61334 53.8296 6.18374 53.872 5.7581ZM58.7732 5.7581C58.7732 4.3556 58.1284 3.53543 56.9968 3.53543C55.8609 3.53543 55.2219 4.3556 55.2219 5.75811C55.2219 7.17185 55.861 7.9857 56.9968 7.9857C58.1285 7.98569 58.7732 7.16622 58.7732 5.7581H58.7732Z" fill="black"/>
<path d="M68.4192 8.99597H67.0636L65.695 4.23067H65.5916L64.2288 8.99597H62.8861L61.0609 2.52578H62.3864L63.5726 7.46291H63.6702L65.0316 2.52578H66.2853L67.6466 7.46291H67.75L68.9304 2.52578H70.2372L68.4192 8.99597Z" fill="black"/>
<path d="M71.7724 2.52576H73.0304V3.5536H73.128C73.2937 3.18444 73.5731 2.87497 73.9273 2.66834C74.2815 2.46171 74.6929 2.3682 75.104 2.40086C75.4262 2.37719 75.7497 2.42466 76.0506 2.53975C76.3515 2.65484 76.622 2.8346 76.8421 3.06571C77.0622 3.29683 77.2263 3.57337 77.3221 3.87486C77.418 4.17634 77.4432 4.49505 77.396 4.80736V8.99587H76.0892V5.12801C76.0892 4.08824 75.6268 3.57115 74.6603 3.57115C74.4415 3.56119 74.2232 3.59757 74.0202 3.67779C73.8171 3.75801 73.6343 3.88018 73.4841 4.03592C73.3339 4.19165 73.22 4.37728 73.1501 4.58007C73.0802 4.78285 73.056 4.99801 73.0792 5.21079V8.99595H71.7724L71.7724 2.52576Z" fill="black"/>
<path d="M79.4782 -7.62939e-06H80.785V8.99595H79.4782V-7.62939e-06Z" fill="black"/>
<path d="M82.6016 5.75812C82.56 5.33289 82.6098 4.90386 82.7478 4.49855C82.8859 4.09323 83.1091 3.72057 83.4031 3.40448C83.6971 3.08838 84.0556 2.83582 84.4553 2.663C84.8551 2.49017 85.2875 2.4009 85.7246 2.4009C86.1618 2.4009 86.5941 2.49017 86.9939 2.663C87.3937 2.83582 87.7521 3.08838 88.0462 3.40448C88.3402 3.72057 88.5634 4.09323 88.7014 4.49855C88.8395 4.90386 88.8893 5.33289 88.8477 5.75812C88.89 6.18378 88.8408 6.61339 88.7031 7.01934C88.5655 7.42529 88.3424 7.79861 88.0483 8.11531C87.7542 8.43201 87.3955 8.68509 86.9953 8.85827C86.5951 9.03146 86.1623 9.12093 85.7246 9.12093C85.287 9.12093 84.8541 9.03146 84.454 8.85827C84.0538 8.68509 83.6951 8.43201 83.401 8.11531C83.1069 7.79861 82.8838 7.42529 82.7461 7.01934C82.6085 6.61339 82.5592 6.18378 82.6016 5.75812ZM87.5028 5.75812C87.5028 4.35562 86.858 3.53545 85.7264 3.53545C84.5905 3.53545 83.9515 4.35562 83.9515 5.75814C83.9515 7.17188 84.5906 7.98573 85.7264 7.98573C86.858 7.98571 87.5028 7.16624 87.5028 5.75812H87.5028Z" fill="black"/>
<path d="M90.2234 7.16618C90.2234 6.00152 91.1109 5.33009 92.6862 5.23466L94.4798 5.13364V4.57516C94.4798 3.8918 94.0174 3.50592 93.1242 3.50592C92.3947 3.50592 91.8892 3.76762 91.7442 4.22507H90.479C90.6126 3.11372 91.6824 2.4009 93.1845 2.4009C94.8446 2.4009 95.7809 3.20843 95.7809 4.57516V8.99597H94.5229V8.08669H94.4195C94.2096 8.41285 93.915 8.67875 93.5655 8.85723C93.2161 9.0357 92.8245 9.12037 92.4306 9.10257C92.1526 9.13082 91.8717 9.10185 91.6059 9.0175C91.34 8.93316 91.0953 8.79532 90.8873 8.61288C90.6794 8.43044 90.5128 8.20745 90.3985 7.95827C90.2841 7.70909 90.2245 7.43926 90.2234 7.16618ZM94.4798 6.61331V6.07238L92.8628 6.17341C91.9509 6.23304 91.5374 6.53614 91.5374 7.10654C91.5374 7.68886 92.0543 8.02774 92.7652 8.02774C92.9735 8.04834 93.1839 8.02779 93.3839 7.96731C93.5839 7.90683 93.7694 7.80766 93.9294 7.67569C94.0894 7.54373 94.2205 7.38167 94.3151 7.19916C94.4097 7.01665 94.4657 6.81741 94.4798 6.61331Z" fill="black"/>
<path d="M97.4984 5.75808C97.4984 3.7136 98.574 2.41844 100.247 2.41844C100.661 2.39981 101.072 2.49666 101.431 2.69767C101.791 2.89868 102.084 3.19555 102.278 3.55358H102.375V-7.62939e-06H103.682V8.99595H102.43V7.97371H102.326C102.118 8.32932 101.814 8.6225 101.448 8.82148C101.081 9.02046 100.666 9.11767 100.247 9.10258C98.5625 9.10265 97.4984 7.80746 97.4984 5.75808ZM98.8483 5.75808C98.8483 7.13042 99.5104 7.95621 100.618 7.95621C101.719 7.95621 102.4 7.1185 102.4 5.76369C102.4 4.41521 101.712 3.56556 100.618 3.56556C99.5175 3.56556 98.8483 4.39696 98.8483 5.75808H98.8483Z" fill="black"/>
<path d="M109.089 5.7581C109.047 5.3329 109.097 4.90389 109.235 4.49859C109.373 4.09329 109.596 3.72064 109.89 3.40456C110.184 3.08847 110.542 2.83591 110.942 2.66309C111.342 2.49027 111.774 2.40099 112.211 2.40099C112.649 2.40099 113.081 2.49027 113.481 2.66309C113.88 2.83591 114.239 3.08847 114.533 3.40456C114.827 3.72064 115.05 4.09329 115.188 4.49859C115.326 4.90389 115.376 5.3329 115.334 5.7581C115.377 6.18374 115.327 6.61334 115.19 7.01929C115.052 7.42525 114.829 7.79858 114.535 8.11529C114.241 8.432 113.882 8.68508 113.482 8.85828C113.082 9.03147 112.649 9.12094 112.211 9.12094C111.774 9.12094 111.341 9.03147 110.941 8.85828C110.541 8.68508 110.182 8.432 109.888 8.11529C109.594 7.79858 109.371 7.42525 109.233 7.01929C109.096 6.61334 109.046 6.18374 109.089 5.7581ZM113.99 5.7581C113.99 4.3556 113.345 3.53543 112.214 3.53543C111.078 3.53543 110.439 4.3556 110.439 5.75811C110.439 7.17185 111.078 7.9857 112.214 7.9857C113.345 7.98569 113.99 7.16622 113.99 5.7581Z" fill="black"/>
<path d="M117.088 2.52576H118.346V3.5536H118.443C118.609 3.18444 118.888 2.87497 119.242 2.66834C119.597 2.46171 120.008 2.3682 120.419 2.40086C120.741 2.37719 121.065 2.42466 121.366 2.53975C121.667 2.65484 121.937 2.8346 122.157 3.06571C122.377 3.29683 122.541 3.57337 122.637 3.87486C122.733 4.17634 122.758 4.49505 122.711 4.80736V8.99587H121.404V5.12801C121.404 4.08824 120.942 3.57115 119.975 3.57115C119.757 3.56119 119.538 3.59757 119.335 3.67779C119.132 3.75801 118.949 3.88018 118.799 4.03592C118.649 4.19165 118.535 4.37728 118.465 4.58007C118.395 4.78285 118.371 4.99801 118.394 5.21079V8.99595H117.088V2.52576Z" fill="black"/>
<path d="M130.095 0.914913V2.55526H131.53V3.63083H130.095V6.95783C130.095 7.63558 130.381 7.93235 131.032 7.93235C131.198 7.93183 131.364 7.92199 131.53 7.90288V8.96651C131.295 9.00753 131.057 9.02936 130.819 9.03176C129.366 9.03176 128.787 8.53221 128.787 7.28476V3.63077H127.736V2.5552H128.787V0.914913H130.095Z" fill="black"/>
<path d="M133.315 -7.62939e-06H134.61V3.56555H134.714C134.887 3.19294 135.174 2.88172 135.536 2.67431C135.897 2.4669 136.315 2.37338 136.733 2.4065C137.053 2.38946 137.374 2.44175 137.671 2.55963C137.968 2.67752 138.236 2.85809 138.453 3.08848C138.671 3.31887 138.834 3.59339 138.931 3.89245C139.028 4.19152 139.056 4.50776 139.013 4.81861V8.99597H137.705V5.13362C137.705 4.10016 137.212 3.57676 136.289 3.57676C136.064 3.55876 135.838 3.58893 135.627 3.66516C135.416 3.74139 135.224 3.86184 135.065 4.01809C134.906 4.17433 134.784 4.36259 134.708 4.5697C134.631 4.77681 134.602 4.99776 134.622 5.2171V8.99594H133.315L133.315 -7.62939e-06Z" fill="black"/>
<path d="M146.633 7.24898C146.455 7.84032 146.071 8.35183 145.546 8.69402C145.021 9.03621 144.391 9.1873 143.764 9.12086C143.327 9.13211 142.894 9.05046 142.493 8.88159C142.092 8.71271 141.734 8.46066 141.443 8.14291C141.152 7.82516 140.935 7.44933 140.808 7.04151C140.68 6.63369 140.645 6.20365 140.705 5.78124C140.647 5.35752 140.682 4.92655 140.81 4.51751C140.937 4.10847 141.152 3.7309 141.442 3.41037C141.731 3.08984 142.088 2.83383 142.488 2.65967C142.887 2.48551 143.32 2.39726 143.758 2.40091C145.6 2.40091 146.712 3.63088 146.712 5.66263V6.1082H142.036V6.17975C142.015 6.41719 142.046 6.65619 142.126 6.88142C142.205 7.10665 142.332 7.31315 142.498 7.48767C142.664 7.66218 142.866 7.80087 143.09 7.89484C143.314 7.98881 143.556 8.03598 143.799 8.03334C144.112 8.07 144.429 8.015 144.709 7.87533C144.99 7.73565 145.221 7.51762 145.375 7.24894L146.633 7.24898ZM142.036 5.16382H145.38C145.397 4.94667 145.367 4.72855 145.292 4.52348C145.217 4.31841 145.099 4.13092 144.945 3.97307C144.792 3.81522 144.606 3.69049 144.401 3.6069C144.195 3.52331 143.973 3.4827 143.751 3.48769C143.525 3.48492 143.3 3.52638 143.091 3.60964C142.882 3.6929 142.691 3.81627 142.532 3.97248C142.372 4.12869 142.246 4.31458 142.16 4.51918C142.075 4.72379 142.033 4.94297 142.036 5.16382H142.036Z" fill="black"/>
</svg>
