<svg width="11" height="9" viewBox="0 0 11 9" fill="none" xmlns="http://www.w3.org/2000/svg">
<path fill-rule="evenodd" clip-rule="evenodd" d="M9.5308 0.851717C9.29367 0.858068 9.06841 0.956839 8.90308 1.12696L4.09086 5.93917L2.00705 3.85536C1.92327 3.7681 1.82293 3.69844 1.71189 3.65045C1.60086 3.60246 1.48136 3.57711 1.36041 3.57588C1.23945 3.57465 1.11946 3.59756 1.00747 3.64328C0.895485 3.68901 0.793745 3.75661 0.708211 3.84215C0.622678 3.92768 0.555071 4.02942 0.509349 4.14141C0.463628 4.2534 0.440711 4.37338 0.441942 4.49434C0.443172 4.6153 0.468525 4.73479 0.516515 4.84583C0.564505 4.95686 0.634168 5.05721 0.721424 5.14098L3.44983 7.8685C3.62034 8.03894 3.85155 8.13468 4.09264 8.13468C4.33373 8.13468 4.56494 8.03894 4.73545 7.8685L10.1878 2.41613C10.3202 2.28886 10.411 2.12447 10.4482 1.94461C10.4853 1.76474 10.4672 1.57784 10.3961 1.4085C10.3249 1.23916 10.2042 1.09533 10.0498 0.995948C9.89531 0.896561 9.71438 0.846278 9.5308 0.851717Z" fill="white"/>
</svg>
