<svg width="158" height="36" viewBox="0 0 158 36" fill="none" xmlns="http://www.w3.org/2000/svg">
<path d="M15.1042 17.1925L0.201782 33.0089C0.203182 33.0117 0.203182 33.0159 0.204581 33.0187C0.662277 34.7361 2.22992 36 4.09149 36C4.83612 36 5.53456 35.7985 6.13363 35.4457L6.18122 35.4177L22.955 25.739L15.1042 17.1925Z" fill="#EA4335"/>
<path d="M30.1799 14.4993L30.1659 14.4895L22.924 10.2918L14.7653 17.552L22.9534 25.7373L30.1561 21.5817C31.4186 20.8986 32.2767 19.5675 32.2767 18.0335C32.2767 16.5078 31.4312 15.1837 30.1799 14.4993Z" fill="#FBBC04"/>
<path d="M0.2015 2.98998C0.11192 3.32031 0.0643311 3.66743 0.0643311 4.02575V31.9745C0.0643311 32.3329 0.11192 32.68 0.202899 33.0089L15.6162 17.597L0.2015 2.98998Z" fill="#4285F4"/>
<path d="M15.2142 17.9999L22.9264 10.2891L6.17227 0.575285C5.56341 0.209969 4.85237 1.71661e-05 4.09234 1.71661e-05C2.23077 1.71661e-05 0.660327 1.26673 0.202632 2.98553C0.202632 2.98693 0.201233 2.98833 0.201233 2.98973L15.2142 17.9999Z" fill="#34A853"/>
<path d="M54.2128 4.46912C54.2128 5.57779 53.8847 6.46024 53.2272 7.11909C52.4797 7.90231 51.5073 8.29392 50.3113 8.29392C49.1643 8.29392 48.1905 7.89702 47.3901 7.10189C46.587 6.30809 46.1875 5.32245 46.1875 4.14763C46.1875 2.97148 46.587 1.98716 47.3901 1.19204C48.1905 0.398234 49.1643 1.04904e-05 50.3113 1.04904e-05C50.8789 1.04904e-05 51.4239 0.111142 51.9399 0.333407C52.4572 0.555671 52.8713 0.850701 53.1822 1.21982L52.4837 1.91837C51.9584 1.29126 51.2348 0.976387 50.3113 0.976387C49.4752 0.976387 48.7528 1.27009 48.1429 1.85751C47.533 2.44624 47.2287 3.20829 47.2287 4.14763C47.2287 5.08564 47.533 5.84901 48.1429 6.43642C48.7528 7.02516 49.4752 7.31754 50.3113 7.31754C51.1977 7.31754 51.936 7.02251 52.5287 6.43113C52.9123 6.04614 53.1333 5.51164 53.1928 4.82368H50.3113V3.86979H54.1573C54.1943 4.07751 54.2128 4.27728 54.2128 4.46912Z" fill="black"/>
<path d="M54.2128 4.46912C54.2128 5.57779 53.8847 6.46024 53.2272 7.11909C52.4797 7.90231 51.5073 8.29392 50.3113 8.29392C49.1643 8.29392 48.1905 7.89702 47.3901 7.10189C46.587 6.30809 46.1875 5.32245 46.1875 4.14763C46.1875 2.97148 46.587 1.98716 47.3901 1.19204C48.1905 0.398234 49.1643 1.04904e-05 50.3113 1.04904e-05C50.8789 1.04904e-05 51.4239 0.111142 51.9399 0.333407C52.4572 0.555671 52.8713 0.850701 53.1822 1.21982L52.4837 1.91837C51.9584 1.29126 51.2348 0.976387 50.3113 0.976387C49.4752 0.976387 48.7528 1.27009 48.1429 1.85751C47.533 2.44624 47.2287 3.20829 47.2287 4.14763C47.2287 5.08564 47.533 5.84901 48.1429 6.43642C48.7528 7.02516 49.4752 7.31754 50.3113 7.31754C51.1977 7.31754 51.936 7.02251 52.5287 6.43113C52.9123 6.04614 53.1333 5.51164 53.1928 4.82368H50.3113V3.86979H54.1573C54.1943 4.07751 54.2128 4.27728 54.2128 4.46912Z" fill="black"/>
<path d="M60.3111 1.15382H56.6966V3.67017H59.9565V4.62405H56.6966V7.14041H60.3111V8.11678H55.6766V0.178762H60.3111V1.15382Z" fill="black"/>
<path d="M60.3111 1.15382H56.6966V3.67017H59.9565V4.62405H56.6966V7.14041H60.3111V8.11678H55.6766V0.178762H60.3111V1.15382Z" fill="black"/>
<path d="M64.6121 8.11642H63.592V1.15345H61.3747V0.178396H66.8294V1.15345H64.6121V8.11642Z" fill="black"/>
<path d="M64.6121 8.11642H63.592V1.15345H61.3747V0.178396H66.8294V1.15345H64.6121V8.11642Z" fill="black"/>
<path d="M70.7762 0.178396H71.7963V8.11642H70.7762V0.178396Z" fill="black"/>
<path d="M76.3202 8.11642H75.3001V1.15345H73.0828V0.178396H78.5375V1.15345H76.3202V8.11642Z" fill="black"/>
<path d="M76.3202 8.11642H75.3001V1.15345H73.0828V0.178396H78.5375V1.15345H76.3202V8.11642Z" fill="black"/>
<path d="M83.7963 6.42584C84.3838 7.02119 85.1022 7.31754 85.9528 7.31754C86.8035 7.31754 87.5219 7.02119 88.1093 6.42584C88.6968 5.83049 88.9918 5.07108 88.9918 4.14763C88.9918 3.22417 88.6968 2.46344 88.1093 1.86941C87.5219 1.27406 86.8035 0.976387 85.9528 0.976387C85.1022 0.976387 84.3838 1.27406 83.7963 1.86941C83.2103 2.46344 82.9152 3.22417 82.9152 4.14763C82.9152 5.07108 83.2103 5.83049 83.7963 6.42584ZM88.8635 7.08999C88.0829 7.89305 87.1131 8.29392 85.9528 8.29392C84.7926 8.29392 83.8228 7.89305 83.0436 7.08999C82.263 6.28825 81.874 5.3079 81.874 4.14763C81.874 2.98735 82.263 2.00568 83.0436 1.20394C83.8228 0.402203 84.7926 1.04904e-05 85.9528 1.04904e-05C87.1065 1.04904e-05 88.0736 0.403526 88.8582 1.20924C89.6414 2.01494 90.033 2.99397 90.033 4.14763C90.033 5.3079 89.6427 6.28825 88.8635 7.08999Z" fill="black"/>
<path d="M83.7963 6.42584C84.3838 7.02119 85.1022 7.31754 85.9528 7.31754C86.8035 7.31754 87.5219 7.02119 88.1093 6.42584C88.6968 5.83049 88.9918 5.07108 88.9918 4.14763C88.9918 3.22417 88.6968 2.46344 88.1093 1.86941C87.5219 1.27406 86.8035 0.976387 85.9528 0.976387C85.1022 0.976387 84.3838 1.27406 83.7963 1.86941C83.2103 2.46344 82.9152 3.22417 82.9152 4.14763C82.9152 5.07108 83.2103 5.83049 83.7963 6.42584ZM88.8635 7.08999C88.0829 7.89305 87.1131 8.29392 85.9528 8.29392C84.7926 8.29392 83.8228 7.89305 83.0436 7.08999C82.263 6.28825 81.874 5.3079 81.874 4.14763C81.874 2.98735 82.263 2.00568 83.0436 1.20394C83.8228 0.402203 84.7926 1.04904e-05 85.9528 1.04904e-05C87.1065 1.04904e-05 88.0736 0.403526 88.8582 1.20924C89.6414 2.01494 90.033 2.99397 90.033 4.14763C90.033 5.3079 89.6427 6.28825 88.8635 7.08999Z" fill="black"/>
<path d="M91.4644 8.11642V0.178396H92.7053L96.5632 6.35285H96.6082L96.5632 4.82346V0.178396H97.5846V8.11642H96.5196L92.4831 1.64164H92.4394L92.4831 3.17235V8.11642H91.4644Z" fill="black"/>
<path d="M91.4644 8.11642V0.178396H92.7053L96.5632 6.35285H96.6082L96.5632 4.82346V0.178396H97.5846V8.11642H96.5196L92.4831 1.64164H92.4394L92.4831 3.17235V8.11642H91.4644Z" fill="black"/>
<path d="M132.955 30.6074H135.423V14.0686H132.955V30.6074ZM155.19 20.0261L152.361 27.1967H152.276L149.339 20.0261H146.68L151.084 30.0478L148.574 35.623H151.147L157.936 20.0261H155.19ZM141.19 28.7288C140.381 28.7288 139.254 28.3253 139.254 27.3238C139.254 26.0484 140.657 25.5589 141.87 25.5589C142.955 25.5589 143.467 25.793 144.126 26.1119C143.934 27.6439 142.615 28.7288 141.19 28.7288ZM141.488 19.6649C139.701 19.6649 137.849 20.4521 137.084 22.1971L139.275 23.1113C139.743 22.1971 140.615 21.8981 141.53 21.8981C142.807 21.8981 144.105 22.6641 144.126 24.0268V24.1962C143.679 23.9408 142.722 23.5585 141.552 23.5585C139.19 23.5585 136.785 24.8564 136.785 27.2814C136.785 29.4948 138.722 30.921 140.891 30.921C142.552 30.921 143.467 30.1761 144.042 29.303H144.126V30.5797H146.509V24.2385C146.509 21.3028 144.318 19.6649 141.488 19.6649ZM126.231 22.0397H122.72V16.3706H126.231C128.077 16.3706 129.125 17.8987 129.125 19.2045C129.125 20.4865 128.077 22.0397 126.231 22.0397ZM126.168 14.0686H120.253V30.6074H122.72V24.3417H126.168C128.904 24.3417 131.593 22.3598 131.593 19.2045C131.593 16.0491 128.904 14.0686 126.168 14.0686ZM93.9116 28.7314C92.2062 28.7314 90.7787 27.3039 90.7787 25.3432C90.7787 23.3614 92.2062 21.9113 93.9116 21.9113C95.5958 21.9113 96.9161 23.3614 96.9161 25.3432C96.9161 27.3039 95.5958 28.7314 93.9116 28.7314ZM96.7468 20.9522H96.6608C96.1064 20.292 95.0414 19.6953 93.6986 19.6953C90.8846 19.6953 88.306 22.1667 88.306 25.3432C88.306 28.4973 90.8846 30.9488 93.6986 30.9488C95.0414 30.9488 96.1064 30.3521 96.6608 29.6694H96.7468V30.4804C96.7468 32.633 95.5958 33.784 93.7409 33.784C92.2274 33.784 91.2894 32.6965 90.9057 31.7796L88.7532 32.6753C89.371 34.1676 91.0129 36 93.7409 36C96.6396 36 99.0911 34.2947 99.0911 30.1391V20.0353H96.7468V20.9522ZM100.796 30.6074H103.269V14.0673H100.796V30.6074ZM106.913 25.1514C106.849 22.9777 108.597 21.869 109.854 21.869C110.835 21.869 111.666 22.3585 111.943 23.0624L106.913 25.1514ZM114.586 23.2754C114.118 22.0185 112.689 19.6953 109.769 19.6953C106.87 19.6953 104.463 21.9748 104.463 25.322C104.463 28.4761 106.849 30.9488 110.046 30.9488C112.625 30.9488 114.118 29.3718 114.736 28.4549L112.817 27.1756C112.178 28.1136 111.304 28.7314 110.046 28.7314C108.789 28.7314 107.893 28.1559 107.318 27.0274L114.842 23.9144L114.586 23.2754ZM54.6435 21.4218V23.8085H60.3549C60.1842 25.1514 59.7371 26.1317 59.0557 26.8131C58.2236 27.6452 56.923 28.5621 54.6435 28.5621C51.1256 28.5621 48.3764 25.7269 48.3764 22.2103C48.3764 18.6925 51.1256 15.8586 54.6435 15.8586C56.5407 15.8586 57.9259 16.6048 58.9486 17.564L60.6327 15.8798C59.2039 14.5158 57.308 13.4706 54.6435 13.4706C49.8264 13.4706 45.7767 17.3933 45.7767 22.2103C45.7767 27.0274 49.8264 30.9488 54.6435 30.9488C57.2432 30.9488 59.2039 30.0954 60.7386 28.4973C62.3169 26.9202 62.8064 24.7042 62.8064 22.9129C62.8064 22.3585 62.7641 21.8478 62.6781 21.4218H54.6435ZM69.3011 28.7314C67.5957 28.7314 66.1245 27.3251 66.1245 25.322C66.1245 23.2965 67.5957 21.9113 69.3011 21.9113C71.0051 21.9113 72.4763 23.2965 72.4763 25.322C72.4763 27.3251 71.0051 28.7314 69.3011 28.7314ZM69.3011 19.6953C66.188 19.6953 63.6518 22.0608 63.6518 25.322C63.6518 28.5621 66.188 30.9488 69.3011 30.9488C72.4128 30.9488 74.949 28.5621 74.949 25.322C74.949 22.0608 72.4128 19.6953 69.3011 19.6953ZM81.6222 28.7314C79.9169 28.7314 78.4457 27.3251 78.4457 25.322C78.4457 23.2965 79.9169 21.9113 81.6222 21.9113C83.3276 21.9113 84.7974 23.2965 84.7974 25.322C84.7974 27.3251 83.3276 28.7314 81.6222 28.7314ZM81.6222 19.6953C78.5105 19.6953 75.9743 22.0608 75.9743 25.322C75.9743 28.5621 78.5105 30.9488 81.6222 30.9488C84.7339 30.9488 87.2701 28.5621 87.2701 25.322C87.2701 22.0608 84.7339 19.6953 81.6222 19.6953Z" fill="black"/>
</svg>
