<svg width="113" height="148" viewBox="0 0 113 148" fill="none" xmlns="http://www.w3.org/2000/svg">
<path fill-rule="evenodd" clip-rule="evenodd" d="M112.153 57.0317C112.153 26.0616 87.0464 0.955353 56.0763 0.955353C25.1062 0.955353 0 26.0616 0 57.0317C0 72.4304 6.20678 86.3795 16.2551 96.5136L56.2378 147.045L97.9299 94.3532C106.776 84.4398 112.153 71.3636 112.153 57.0317ZM56.0763 26.1656C73.1233 26.1656 86.9426 39.9849 86.9426 57.0319C86.9426 74.0788 73.1233 87.8981 56.0763 87.8981C39.0294 87.8981 25.2101 74.0788 25.2101 57.0319C25.2101 39.9849 39.0294 26.1656 56.0763 26.1656Z" fill="#AE79ED"/>
<mask id="mask0_1328_30995" style="mask-type:alpha" maskUnits="userSpaceOnUse" x="0" y="0" width="113" height="148">
<path fill-rule="evenodd" clip-rule="evenodd" d="M112.153 57.0317C112.153 26.0616 87.0464 0.955353 56.0763 0.955353C25.1062 0.955353 0 26.0616 0 57.0317C0 72.4304 6.20678 86.3795 16.2551 96.5136L56.2378 147.045L97.9299 94.3532C106.776 84.4398 112.153 71.3636 112.153 57.0317ZM56.0763 26.1656C73.1233 26.1656 86.9426 39.9849 86.9426 57.0319C86.9426 74.0788 73.1233 87.8981 56.0763 87.8981C39.0294 87.8981 25.2101 74.0788 25.2101 57.0319C25.2101 39.9849 39.0294 26.1656 56.0763 26.1656Z" fill="#33CC99"/>
</mask>
<g mask="url(#mask0_1328_30995)">
<g style="mix-blend-mode:overlay" opacity="0.4">
<rect x="56.2379" y="0.955353" width="55.9147" height="146.089" fill="#2B2E38"/>
</g>
</g>
</svg>
