<svg width="71" height="92" viewBox="0 0 71 92" fill="none" xmlns="http://www.w3.org/2000/svg">
<path fill-rule="evenodd" clip-rule="evenodd" d="M70.5 35.0447C70.5 15.7147 54.83 0.0446777 35.5 0.0446777C16.17 0.0446777 0.5 15.7147 0.5 35.0447C0.5 44.6558 4.37393 53.362 10.6455 59.6872L35.6007 91.2262L61.6226 58.3392C67.1441 52.1517 70.5 43.9901 70.5 35.0447ZM35.5 15.7797C46.1399 15.7797 54.7652 24.4049 54.7652 35.0448C54.7652 45.6846 46.1399 54.3099 35.5 54.3099C24.8602 54.3099 16.2349 45.6846 16.2349 35.0448C16.2349 24.4049 24.8602 15.7797 35.5 15.7797Z" fill="#AE79ED"/>
<mask id="mask0_1328_31806" style="mask-type:alpha" maskUnits="userSpaceOnUse" x="0" y="0" width="71" height="92">
<path fill-rule="evenodd" clip-rule="evenodd" d="M70.5 35.0447C70.5 15.7147 54.83 0.0446777 35.5 0.0446777C16.17 0.0446777 0.5 15.7147 0.5 35.0447C0.5 44.6558 4.37393 53.362 10.6455 59.6872L35.6007 91.2262L61.6226 58.3392C67.1441 52.1517 70.5 43.9901 70.5 35.0447ZM35.5 15.7797C46.1399 15.7797 54.7652 24.4049 54.7652 35.0448C54.7652 45.6846 46.1399 54.3099 35.5 54.3099C24.8602 54.3099 16.2349 45.6846 16.2349 35.0448C16.2349 24.4049 24.8602 15.7797 35.5 15.7797Z" fill="#33CC99"/>
</mask>
<g mask="url(#mask0_1328_31806)">
<g style="mix-blend-mode:overlay" opacity="0.4">
<rect x="35.6008" y="0.0446777" width="34.8991" height="91.1815" fill="#2B2E38"/>
</g>
</g>
</svg>
