<svg width="24" height="30" viewBox="0 0 24 30" fill="none" xmlns="http://www.w3.org/2000/svg">
<path fill-rule="evenodd" clip-rule="evenodd" d="M23.2306 11.8154C23.2306 5.62134 18.2093 0.600098 12.0153 0.600098C5.8213 0.600098 0.800049 5.62134 0.800049 11.8154C0.800049 14.8951 2.04141 17.6849 4.05107 19.7118L12.0476 29.818L20.3861 19.2796C22.1553 17.2969 23.2306 14.6817 23.2306 11.8154ZM12.0153 5.64217C15.4247 5.64217 18.1886 8.40603 18.1886 11.8154C18.1886 15.2248 15.4247 17.9887 12.0153 17.9887C8.60593 17.9887 5.84207 15.2248 5.84207 11.8154C5.84207 8.40603 8.60593 5.64217 12.0153 5.64217Z" fill="#AE79ED"/>
<mask id="mask0_1401_20788" style="mask-type:alpha" maskUnits="userSpaceOnUse" x="0" y="0" width="24" height="30">
<path fill-rule="evenodd" clip-rule="evenodd" d="M23.2306 11.8154C23.2306 5.62134 18.2093 0.600098 12.0153 0.600098C5.8213 0.600098 0.800049 5.62134 0.800049 11.8154C0.800049 14.8951 2.04141 17.6849 4.05107 19.7118L12.0476 29.818L20.3861 19.2796C22.1553 17.2969 23.2306 14.6817 23.2306 11.8154ZM12.0153 5.64217C15.4247 5.64217 18.1886 8.40603 18.1886 11.8154C18.1886 15.2248 15.4247 17.9887 12.0153 17.9887C8.60593 17.9887 5.84207 15.2248 5.84207 11.8154C5.84207 8.40603 8.60593 5.64217 12.0153 5.64217Z" fill="#33CC99"/>
</mask>
<g mask="url(#mask0_1401_20788)">
<g style="mix-blend-mode:overlay" opacity="0.4">
<rect x="12.0476" y="0.600098" width="11.1829" height="29.2179" fill="#2B2E38"/>
</g>
</g>
</svg>
