<svg width="1234" height="292" viewBox="0 0 1234 292" fill="none" xmlns="http://www.w3.org/2000/svg">
<path fill-rule="evenodd" clip-rule="evenodd" d="M33.205 16.205C33.205 7.25522 25.9498 0 17 0C8.05027 0 0.795052 7.25522 0.795052 16.205L0.795044 185.645C0.795044 244.075 48.1614 291.441 106.591 291.441C165.02 291.441 212.387 244.075 212.387 185.645C212.387 127.216 165.02 79.8494 106.591 79.8494C78.0933 79.8494 52.2274 91.1168 33.205 109.44L33.205 16.205ZM106.591 259.031C66.061 259.031 33.205 226.175 33.205 185.645C33.205 145.115 66.061 112.259 106.591 112.259C147.121 112.259 179.977 145.115 179.977 185.645C179.977 226.175 147.121 259.031 106.591 259.031ZM416.578 202.934H266.225C270.121 220.647 280.278 236.736 294.973 247.061C307.681 255.99 325.953 260.078 344.719 258.338C363.495 256.597 380.483 249.239 391.032 238.146C397.199 231.66 407.456 231.402 413.942 237.57C420.427 243.737 420.685 253.994 414.518 260.48C397.321 278.563 372.289 288.33 347.712 290.609C323.125 292.889 296.709 287.892 276.339 273.579C248.078 253.721 232.046 220.395 232.046 186.729C232.047 125.384 287.556 70.5502 352.152 84.0622C400.712 94.2197 432.783 139.567 432.783 186.729C432.783 195.679 425.528 202.934 416.578 202.934ZM266.279 170.524C274.501 134.456 309.303 108.211 345.516 115.786C372.187 121.364 392.596 143.738 398.579 170.524H266.279ZM452.439 175.879C452.439 123.442 494.948 80.9337 547.384 80.9337C599.821 80.9337 642.329 123.442 642.329 175.879V275.236C642.329 284.186 635.074 291.441 626.124 291.441C617.175 291.441 609.919 284.186 609.919 275.236V175.879C609.919 141.342 581.921 113.344 547.384 113.344C512.847 113.344 484.849 141.342 484.849 175.879V275.236C484.849 284.186 477.594 291.441 468.644 291.441C459.694 291.441 452.439 284.186 452.439 275.236V175.879ZM846.131 202.934H695.778C699.674 220.647 709.831 236.736 724.525 247.061C737.233 255.99 755.505 260.078 774.271 258.338C793.048 256.597 810.035 249.239 820.584 238.146C826.751 231.66 837.008 231.402 843.494 237.57C849.98 243.737 850.238 253.994 844.07 260.48C826.874 278.563 801.841 288.33 777.264 290.609C752.677 292.889 726.262 287.892 705.892 273.579C677.631 253.721 661.598 220.395 661.599 186.729C661.599 125.384 717.108 70.5502 781.705 84.0622C830.264 94.2197 862.336 139.567 862.336 186.729C862.336 195.679 855.081 202.934 846.131 202.934ZM695.832 170.524C704.053 134.456 738.856 108.211 775.069 115.786C801.74 121.364 822.148 143.738 828.132 170.524H695.832ZM997.487 32.41C970.493 32.41 948.609 54.2936 948.609 81.2885V93.1706H995.398C1004.35 93.1706 1011.6 100.426 1011.6 109.376C1011.6 118.325 1004.35 125.581 995.398 125.581H948.609V275.236C948.609 284.186 941.354 291.441 932.404 291.441C923.454 291.441 916.199 284.186 916.199 275.236V125.581H898.583C889.633 125.581 882.378 118.325 882.378 109.376C882.378 100.426 889.633 93.1706 898.583 93.1706H916.199V81.2885C916.199 36.3942 952.593 0 997.487 0H1000.3C1009.25 0 1016.51 7.25522 1016.51 16.205C1016.51 25.1547 1009.25 32.41 1000.3 32.41H997.487ZM1068.57 105.796C1068.57 96.8459 1061.32 89.5907 1052.37 89.5907C1043.42 89.5907 1036.16 96.8459 1036.16 105.796V275.236C1036.16 284.186 1043.42 291.441 1052.37 291.441C1061.32 291.441 1068.57 284.186 1068.57 275.236V105.796ZM1149.1 0C1158.05 0 1165.31 7.25522 1165.31 16.205V93.0091H1212.1C1221.05 93.0091 1228.3 100.264 1228.3 109.214C1228.3 118.164 1221.05 125.419 1212.1 125.419H1165.31V210.153C1165.31 237.148 1187.19 259.031 1214.19 259.031H1217C1225.95 259.031 1233.2 266.286 1233.2 275.236C1233.2 284.186 1225.95 291.441 1217 291.441H1214.19C1169.29 291.441 1132.9 255.047 1132.9 210.153V125.419H1115.28C1106.33 125.419 1099.08 118.164 1099.08 109.214C1099.08 100.264 1106.33 93.0091 1115.28 93.0091H1132.9V16.205C1132.9 7.25522 1140.15 0 1149.1 0ZM1052.37 16.205C1038.42 16.205 1027.12 27.5071 1027.12 41.449C1027.12 55.3909 1038.42 66.693 1052.37 66.693C1066.31 66.693 1077.61 55.3909 1077.61 41.449C1077.61 27.5071 1066.31 16.205 1052.37 16.205Z" fill="#D0D8E7"/>
</svg>
