<svg width="115" height="28" viewBox="0 0 115 28" fill="none" xmlns="http://www.w3.org/2000/svg">
<path d="M2 17.6991C2 22.2836 5.71642 26 10.3009 26C14.8853 26 18.6017 22.2836 18.6017 17.6991C18.6017 13.1147 14.8853 9.39828 10.3009 9.39828C5.71642 9.39828 2 13.1147 2 17.6991ZM2 17.6991L2 2" stroke="#2B2E38" stroke-width="3.00288" stroke-linecap="round" stroke-linejoin="round"/>
<path d="M23.4261 17.7996H39.0221C39.0221 14.0604 36.4734 10.5366 32.7454 9.75679C27.8325 8.72912 23.4261 12.9208 23.4261 17.7996ZM23.4261 17.7996C23.4261 20.4611 24.6984 23.0767 26.8918 24.6179C29.9566 26.7714 35.1725 26.3014 37.7432 23.5981" stroke="#2B2E38" stroke-width="3.00288" stroke-linecap="round" stroke-linejoin="round"/>
<path d="M58.4372 25.9999V16.7942C58.4372 12.765 55.1709 9.49872 51.1417 9.49872C47.1125 9.49872 43.8462 12.765 43.8462 16.7942V25.9999" stroke="#2B2E38" stroke-width="3.00288" stroke-linecap="round" stroke-linejoin="round"/>
<path d="M63.2254 17.7996H78.8215C78.8215 14.0604 76.2727 10.5366 72.5448 9.75679C67.6318 8.72912 63.2255 12.9208 63.2254 17.7996ZM63.2254 17.7996C63.2254 20.4611 64.4977 23.0767 66.6911 24.6179C69.7559 26.7714 74.9718 26.3014 77.5425 23.5981" stroke="#2B2E38" stroke-width="3.00288" stroke-linecap="round" stroke-linejoin="round"/>
<path d="M86.8149 26V10.6325M86.8149 10.6325V8.03018C86.8149 4.69981 89.5147 2 92.8451 2H93.1057M86.8149 10.6325H83.6813M86.8149 10.6325H92.6515" stroke="#2B2E38" stroke-width="3.00288" stroke-linecap="round" stroke-linejoin="round"/>
<path d="M97.9299 10.3008L97.9299 26" stroke="#2B2E38" stroke-width="3.00288" stroke-linecap="round" stroke-linejoin="round"/>
<path d="M106.893 2V10.6176M106.893 10.6176V19.9698C106.893 23.3002 109.593 26 112.923 26H113.184M106.893 10.6176H103.759M106.893 10.6176H112.729" stroke="#2B2E38" stroke-width="3.00288" stroke-linecap="round" stroke-linejoin="round"/>
<rect x="95.5908" y="2" width="4.67787" height="4.67787" rx="2.33893" fill="#33CC99"/>
</svg>
